<?xml version="1.0" encoding="UTF-8"?>
<svg id="Layer_1" data-name="Layer 1" xmlns="http://www.w3.org/2000/svg" viewBox="0 0 1000 1000">
  <defs>
    <style>
      .cls-1 {
        fill: #ed842c;
      }
    </style>
  </defs>
  <polygon class="cls-1" points="478.89 586.04 519.04 586.04 519.04 488.88 518.58 488.88 518.58 487.75 478.83 487.75 478.82 583.96 478.89 583.96 478.89 586.04"/>
  <path class="cls-1" d="M516.55,599.72c-4.38-3.91-10.24-5.86-17.58-5.86-7.34,0-13.2,1.98-17.59,5.95-4.38,3.97-6.57,9.03-6.57,15.19,0,5.8,2.19,10.54,6.57,14.21,4.38,3.67,10.24,5.51,17.58,5.51,7.34,0,13.21-1.95,17.59-5.86,4.38-3.91,6.57-8.76,6.57-14.56,0-5.8-2.19-10.66-6.57-14.57Z"/>
  <polygon class="cls-1" points="233.99 487.72 187.02 487.72 159.4 515.62 159.41 414.25 119.66 414.24 119.65 583.93 159.4 583.93 159.4 561.19 165.81 554.39 189.12 583.93 237.14 583.94 194.23 529.38 233.99 487.72"/>
  <path class="cls-1" d="M329.85,490.46c-5.98-2.99-12.66-4.49-20.05-4.49-7.86,0-14.98,1.82-21.37,5.45-2.05,1.16-3.94,2.53-5.72,4.07v-20.91s-39.75,0-39.75,0v109.36s39.74,0,39.74,0v-45.21c0-4.81.68-8.62,2.03-11.43,1.35-2.81,3.17-4.84,5.45-6.07,2.29-1.23,4.78-1.85,7.48-1.85,3.63,0,6.51,1.26,8.62,3.78,2.11,2.52,3.17,6.77,3.16,12.75v48.02s39.75,0,39.75,0v-54.88c0-10.08-1.72-18.29-5.18-24.63-3.46-6.33-8.18-10.99-14.16-13.98Z"/>
  <path class="cls-1" d="M447.96,497.07c-9.09-7.39-21.9-11.08-38.43-11.08-7.51,0-15.19.94-23.04,2.81-7.86,1.88-14.6,4.57-20.23,8.09l12.66,26.21c3.17-2.34,6.98-4.19,11.43-5.54,4.46-1.35,8.85-2.02,13.19-2.02,6.45,0,11.11,1.23,13.98,3.7,2.19,1.87,3.54,4.4,4.06,7.56h-15.93c-9.97,0-18.2,1.11-24.71,3.34-6.51,2.23-11.35,5.51-14.51,9.85-3.17,4.34-4.75,9.62-4.75,15.83,0,5.51,1.35,10.53,4.04,15.04,2.7,4.52,6.68,8.12,11.96,10.82,5.28,2.7,11.84,4.05,19.7,4.05,8.33,0,14.95-1.76,19.88-5.27,3.17-2.27,5.63-5.29,7.39-9.07v12.58s36.94,0,36.94,0v-51.71c0-16.06-4.54-27.79-13.62-35.18ZM421.83,552.65c-1.06,3.17-2.73,5.48-5.01,6.95-2.29,1.47-4.78,2.2-7.48,2.2-2.93,0-5.25-.73-6.95-2.2-1.7-1.47-2.55-3.31-2.55-5.54,0-2.7.97-4.72,2.9-6.07,1.93-1.35,5.01-2.02,9.23-2.02h9.85s0,6.69,0,6.69Z"/>
  <path class="cls-1" d="M602.83,494.32c-1.15-1.1-2.38-2.09-3.69-2.96-5.39-3.58-12.31-5.37-20.76-5.37-8.33,0-16.04,1.99-23.13,5.98-7.1,3.99-12.75,9.7-16.98,17.15-4.22,7.45-6.33,16.33-6.33,26.65,0,10.32,2.11,19.2,6.33,26.65,4.22,7.45,9.88,13.19,16.97,17.24,7.09,4.05,14.8,6.07,23.13,6.07,8.91,0,16.03-1.76,21.37-5.27,1.85-1.22,3.52-2.69,5.01-4.38v7.9s37.82,0,37.82,0l.02-169.68h-39.75s0,80.03,0,80.03ZM601.42,546.24c-1.41,2.87-3.28,5.01-5.63,6.42-2.35,1.41-4.99,2.11-7.92,2.11-2.93,0-5.57-.7-7.92-2.11-2.35-1.41-4.22-3.55-5.63-6.42-1.41-2.87-2.11-6.36-2.11-10.47,0-4.22.7-7.71,2.11-10.46,1.41-2.75,3.28-4.84,5.63-6.24,2.34-1.41,4.98-2.11,7.92-2.11,2.93,0,5.57.7,7.91,2.11,2.34,1.41,4.22,3.49,5.63,6.25,1.41,2.76,2.11,6.24,2.11,10.47,0,4.11-.7,7.59-2.11,10.47Z"/>
  <path class="cls-1" d="M735.89,491.64c-8.03-3.75-16.8-5.63-26.3-5.63-10.32,0-19.61,2.11-27.88,6.33-8.27,4.22-14.78,10.08-19.53,17.59-4.75,7.51-7.13,16.12-7.13,25.86,0,9.5,2.4,18.03,7.21,25.59,4.81,7.56,11.58,13.52,20.31,17.86,8.73,4.34,18.97,6.51,30.69,6.51,9.61,0,17.85-1.32,24.71-3.95,6.86-2.64,12.63-6.48,17.33-11.52l-20.75-20.93c-3.17,2.35-6.19,4.11-9.06,5.28-2.88,1.17-6.54,1.76-10.99,1.76-4.34,0-8.03-.73-11.08-2.2-3.05-1.47-5.39-3.66-7.04-6.6-.44-.78-.81-1.6-1.13-2.46h66.74c.12-1.4.23-2.95.35-4.66.12-1.7.18-3.25.18-4.66,0-10.91-2.43-20.05-7.3-27.44-4.87-7.39-11.32-12.96-19.35-16.71ZM694.4,525.94c.32-1.64.81-3.14,1.47-4.49,1.29-2.64,3.14-4.69,5.54-6.16,2.4-1.46,5.25-2.2,8.53-2.2,3.28,0,6.1.73,8.44,2.2,2.34,1.47,4.19,3.52,5.54,6.16.69,1.35,1.2,2.85,1.54,4.49h-31.06Z"/>
  <polygon class="cls-1" points="842.75 487.78 822.05 539.39 802.64 487.78 761.83 487.77 800.52 583.99 841.68 584 880.39 487.79 842.75 487.78"/>
</svg>